<?xml version="1.0" encoding="UTF-8" standalone="no"?>
<!-- Generator: Adobe Illustrator 13.0.0, SVG Export Plug-In . SVG Version: 6.00 Build 14948)  -->
<svg
   xmlns:dc="http://purl.org/dc/elements/1.1/"
   xmlns:cc="http://creativecommons.org/ns#"
   xmlns:rdf="http://www.w3.org/1999/02/22-rdf-syntax-ns#"
   xmlns:svg="http://www.w3.org/2000/svg"
   xmlns="http://www.w3.org/2000/svg"
   xmlns:sodipodi="http://sodipodi.sourceforge.net/DTD/sodipodi-0.dtd"
   xmlns:inkscape="http://www.inkscape.org/namespaces/inkscape"
   version="1.0"
   id="Layer_1"
   x="0px"
   y="0px"
   width="550"
   height="550"
   viewBox="0 0 300 550"
   xml:space="preserve"
   sodipodi:version="0.32"
   inkscape:version="0.46"
   sodipodi:docname="jre-sugar-icon-colored.svg"
   inkscape:output_extension="org.inkscape.output.svg.inkscape"><metadata
   id="metadata32"><rdf:RDF><cc:Work
       rdf:about=""><dc:format>image/svg+xml</dc:format><dc:type
         rdf:resource="http://purl.org/dc/dcmitype/StillImage" /></cc:Work></rdf:RDF></metadata><defs
   id="defs30"><inkscape:perspective
     sodipodi:type="inkscape:persp3d"
     inkscape:vp_x="0 : 275 : 1"
     inkscape:vp_y="0 : 1000 : 0"
     inkscape:vp_z="300 : 275 : 1"
     inkscape:persp3d-origin="150 : 183.33333 : 1"
     id="perspective34" /></defs><sodipodi:namedview
   inkscape:window-height="480"
   inkscape:window-width="640"
   inkscape:pageshadow="2"
   inkscape:pageopacity="0.0"
   guidetolerance="10.0"
   gridtolerance="10.0"
   objecttolerance="10.0"
   borderopacity="1.0"
   bordercolor="#666666"
   pagecolor="#ffffff"
   id="base"
   showgrid="false" />
<path
   style="fill:#e76f00"
   d="M 285.104,430.945 L 283.066,430.945 L 283.066,429.805 L 288.552,429.805 L 288.552,430.945 L 286.528,430.945 L 286.528,436.633 L 285.104,436.633 L 285.104,430.945 z M 296.046,431.242 L 296.014,431.242 L 293.995,436.634 L 293.071,436.634 L 291.065,431.242 L 291.04,431.242 L 291.04,436.634 L 289.698,436.634 L 289.698,429.806 L 291.673,429.806 L 293.533,434.641 L 295.387,429.806 L 297.355,429.806 L 297.355,436.634 L 296.045,436.634 L 296.045,431.242 L 296.046,431.242 z"
   id="path3" />
<path
   style="fill:#5382a1"
   d="M 102.681,291.324 C 102.681,291.324 88.503,299.569 112.771,302.359 C 142.171,305.713 157.197,305.232 189.596,299.1 C 189.596,299.1 198.114,304.441 210.01,309.067 C 137.38,340.195 45.634,307.264 102.681,291.324"
   id="path5" />
<path
   style="fill:#5382a1"
   d="M 93.806,250.704 C 93.806,250.704 77.904,262.475 102.19,264.987 C 133.596,268.227 158.398,268.492 201.315,260.228 C 201.315,260.228 207.251,266.246 216.585,269.537 C 128.771,295.215 30.962,271.562 93.806,250.704"
   id="path7" />
<path
   style="fill:#e76f00"
   d="M 168.625,181.799 C 186.521,202.403 163.923,220.944 163.923,220.944 C 163.923,220.944 209.364,197.486 188.495,168.111 C 169.004,140.717 154.057,127.106 234.974,80.177 C 234.974,80.177 107.961,111.899 168.625,181.799"
   id="path9" />
<path
   style="fill:#5382a1"
   d="M 264.684,321.369 C 264.684,321.369 275.176,330.014 253.129,336.702 C 211.206,349.402 78.641,353.237 41.815,337.208 C 28.577,331.449 53.402,323.457 61.211,321.78 C 69.355,320.014 74.009,320.343 74.009,320.343 C 59.287,309.972 -21.148,340.707 33.152,349.509 C 181.236,373.524 303.095,338.695 264.684,321.369"
   id="path11" />
<path
   style="fill:#5382a1"
   d="M 109.499,208.617 C 109.499,208.617 42.068,224.633 85.62,230.449 C 104.009,232.911 140.667,232.354 174.813,229.493 C 202.719,227.139 230.74,222.134 230.74,222.134 C 230.74,222.134 220.9,226.348 213.781,231.209 C 145.306,249.218 13.025,240.84 51.107,222.419 C 83.313,206.851 109.499,208.617 109.499,208.617"
   id="path13" />
<path
   style="fill:#5382a1"
   d="M 230.462,276.231 C 300.07,240.06 267.886,205.3 245.422,209.983 C 239.916,211.129 237.461,212.122 237.461,212.122 C 237.461,212.122 239.505,208.92 243.409,207.534 C 287.85,191.91 322.028,253.615 229.063,278.054 C 229.063,278.055 230.14,277.092 230.462,276.231"
   id="path15" />
<path
   style="fill:#e76f00"
   d="M 188.495,4.399 C 188.495,4.399 227.045,42.962 151.932,102.261 C 91.699,149.829 138.197,176.951 151.907,207.939 C 116.748,176.217 90.946,148.292 108.256,122.302 C 133.663,84.151 204.049,65.654 188.495,4.399"
   id="path17" />
<path
   style="fill:#5382a1"
   d="M 116.339,374.246 C 183.154,378.523 285.756,371.873 288.186,340.258 C 288.186,340.258 283.515,352.243 232.967,361.761 C 175.939,372.493 105.603,371.24 63.886,364.362 C 63.887,364.361 72.426,371.43 116.339,374.246"
   id="path19" />
<path
   style="fill:#e76f00"
   d="M 105.389,495.048 C 99.086,500.515 92.429,503.584 86.455,503.584 C 77.928,503.584 73.321,498.471 73.321,490.27 C 73.321,481.399 78.257,474.913 98.06,474.913 L 105.388,474.913 L 105.388,495.048 M 122.781,514.671 L 122.781,453.929 C 122.781,438.412 113.931,428.173 92.593,428.173 C 80.136,428.173 69.224,431.249 60.355,435.172 L 62.915,445.924 C 69.898,443.361 78.937,440.975 87.809,440.975 C 100.101,440.975 105.389,445.924 105.389,456.156 L 105.389,463.833 L 99.254,463.833 C 69.389,463.833 55.917,475.426 55.917,492.827 C 55.917,507.844 64.795,516.38 81.511,516.38 C 92.256,516.38 100.277,511.944 107.775,505.452 L 109.136,514.672 L 122.781,514.672 L 122.781,514.671 z"
   id="path21" />
<path
   style="fill:#e76f00"
   d="M 180.825,514.671 L 159.133,514.671 L 133.027,429.711 L 151.97,429.711 L 168.169,481.911 L 171.77,497.61 C 179.965,474.912 185.761,451.884 188.66,429.711 L 207.087,429.711 C 202.15,457.688 193.266,488.396 180.825,514.671"
   id="path23" />
<path
   style="fill:#e76f00"
   d="M 264.038,495.048 C 257.723,500.515 251.054,503.584 245.08,503.584 C 236.568,503.584 231.949,498.471 231.949,490.27 C 231.949,481.399 236.897,474.913 256.698,474.913 L 264.038,474.913 L 264.038,495.048 M 281.428,514.671 L 281.428,453.929 C 281.428,438.412 272.556,428.173 251.243,428.173 C 238.777,428.173 227.861,431.249 218.996,435.172 L 221.552,445.924 C 228.538,443.361 237.594,440.975 246.459,440.975 C 258.742,440.975 264.038,445.924 264.038,456.156 L 264.038,463.833 L 257.893,463.833 C 228.019,463.833 214.553,475.426 214.553,492.827 C 214.553,507.844 223.424,516.38 240.137,516.38 C 250.888,516.38 258.906,511.944 266.417,505.452 L 267.783,514.672 L 281.428,514.672 L 281.428,514.671 z"
   id="path25" />
<path
   style="fill:#e76f00"
   d="M 36.847,529.099 C 31.889,536.338 23.881,542.065 15.114,545.305 L 6.527,535.2 C 13.2,531.776 18.923,526.246 21.582,521.095 C 23.882,516.514 24.834,510.61 24.834,496.491 L 24.834,399.496 L 43.312,399.496 L 43.312,495.162 C 43.311,514.038 41.802,521.663 36.847,529.099"
   id="path27" />
</svg>
